<svg width="61" height="61" viewBox="0 0 61 61" fill="none" xmlns="http://www.w3.org/2000/svg">
<path d="M19.0625 9.53125H15.25C13.7333 9.53125 12.2787 10.1338 11.2062 11.2062C10.1338 12.2787 9.53125 13.7333 9.53125 15.25V19.0625M41.9375 9.53125H45.75C47.2667 9.53125 48.7213 10.1338 49.7938 11.2062C50.8662 12.2787 51.4688 13.7333 51.4688 15.25V19.0625M51.4688 41.9375V45.75C51.4688 47.2667 50.8662 48.7213 49.7938 49.7938C48.7213 50.8662 47.2667 51.4688 45.75 51.4688H41.9375M19.0625 51.4688H15.25C13.7333 51.4688 12.2787 50.8662 11.2062 49.7938C10.1338 48.7213 9.53125 47.2667 9.53125 45.75V41.9375M38.125 30.5C38.125 32.5223 37.3217 34.4617 35.8917 35.8917C34.4617 37.3217 32.5223 38.125 30.5 38.125C28.4777 38.125 26.5383 37.3217 25.1083 35.8917C23.6783 34.4617 22.875 32.5223 22.875 30.5C22.875 28.4777 23.6783 26.5383 25.1083 25.1083C26.5383 23.6783 28.4777 22.875 30.5 22.875C32.5223 22.875 34.4617 23.6783 35.8917 25.1083C37.3217 26.5383 38.125 28.4777 38.125 30.5Z" stroke="white" stroke-width="2.5" stroke-linecap="round" stroke-linejoin="round"/>
</svg>
