<svg width="58" height="58" viewBox="0 0 58 58" fill="none" xmlns="http://www.w3.org/2000/svg">
<path d="M38.7223 22.591H50.7863L43.0989 14.8987C40.624 12.4238 37.5411 10.6439 34.1602 9.73819C30.7793 8.83245 27.2195 8.83272 23.8387 9.73896C20.458 10.6452 17.3754 12.4255 14.9008 14.9008C12.4262 17.3762 10.6469 20.4593 9.74168 23.8404M7.21384 47.473V35.409M7.21384 35.409H19.2778M7.21384 35.409L14.8988 43.1012C17.3738 45.5762 20.4567 47.356 23.8376 48.2618C27.2185 49.1675 30.7783 49.1672 34.159 48.261C37.5398 47.3548 40.6224 45.5745 43.097 43.0991C45.5716 40.6238 47.3509 37.5406 48.2561 34.1596M50.7863 10.527V22.5861" stroke="white" stroke-width="2.5" stroke-linecap="round" stroke-linejoin="round"/>
</svg>
