<svg width="53" height="53" viewBox="0 0 53 53" fill="none" xmlns="http://www.w3.org/2000/svg">
<path d="M19.875 38.0937V40.3175C19.8751 41.1878 19.7037 42.0497 19.3707 42.8537C19.0376 43.6578 18.5494 44.3883 17.9339 45.0036L16.5625 46.375H36.4375L35.0661 45.0036C34.4506 44.3883 33.9624 43.6578 33.6293 42.8537C33.2963 42.0497 33.1249 41.1878 33.125 40.3175V38.0937M46.375 11.5937V33.125C46.375 34.4428 45.8515 35.7066 44.9197 36.6384C43.9879 37.5703 42.724 38.0937 41.4062 38.0937H11.5937C10.276 38.0937 9.01213 37.5703 8.08031 36.6384C7.14849 35.7066 6.625 34.4428 6.625 33.125V11.5937M46.375 11.5937C46.375 10.276 45.8515 9.01213 44.9197 8.08031C43.9879 7.14849 42.724 6.625 41.4062 6.625H11.5937C10.276 6.625 9.01213 7.14849 8.08031 8.08031C7.14849 9.01213 6.625 10.276 6.625 11.5937M46.375 11.5937V26.5C46.375 27.8178 45.8515 29.0816 44.9197 30.0134C43.9879 30.9453 42.724 31.4687 41.4062 31.4687H11.5937C10.276 31.4687 9.01213 30.9453 8.08031 30.0134C7.14849 29.0816 6.625 27.8178 6.625 26.5V11.5937" stroke="white" stroke-width="2.5" stroke-linecap="round" stroke-linejoin="round"/>
</svg>
