<svg width="54" height="54" viewBox="0 0 54 54" fill="none" xmlns="http://www.w3.org/2000/svg">
<path d="M14.1667 14.583V12.4545C14.1667 11.0079 14.733 9.62053 15.741 8.5976C16.749 7.57467 18.1161 7 19.5417 7H37.4583C38.8839 7 40.251 7.57467 41.259 8.5976C42.267 9.62053 42.8333 11.0079 42.8333 12.4545V14.583M14.1667 14.583C14.7281 14.3818 15.3301 14.2727 15.9583 14.2727H41.0417C41.6699 14.2727 42.2719 14.3818 42.8333 14.583M14.1667 14.583C13.1185 14.9591 12.211 15.6558 11.5692 16.5771C10.9274 17.4984 10.583 18.599 10.5833 19.7273V21.8558M42.8333 14.583C43.8815 14.9591 44.789 15.6558 45.4308 16.5771C46.0726 17.4984 46.417 18.599 46.4167 19.7273V21.8558M10.5833 21.8558C11.1447 21.6545 11.7467 21.5455 12.375 21.5455H44.625C45.2353 21.5447 45.8412 21.6497 46.4167 21.8558M10.5833 21.8558C8.49544 22.6048 7 24.6242 7 27V41.5455C7 42.9921 7.56629 44.3795 8.5743 45.4024C9.58231 46.4253 10.9495 47 12.375 47H44.625C46.0505 47 47.4177 46.4253 48.4257 45.4024C49.4337 44.3795 50 42.9921 50 41.5455V27C50.0003 25.8717 49.6559 24.7712 49.0141 23.8498C48.3724 22.9285 47.4649 22.2318 46.4167 21.8558" stroke="white" stroke-width="2.5" stroke-linecap="round" stroke-linejoin="round"/>
</svg>
