<?xml version="1.0" encoding="UTF-8"?>
<svg id="Layer_1" data-name="Layer 1" xmlns="http://www.w3.org/2000/svg" viewBox="0 0 46.9 43.48">
  <path d="M46.88,0l-7.18,9.4,7.18,9.4V0Z"/>
  <path d="M46.88,24.68v18.8l-.06-.08-.11-.15-.11-.15-.11-.15-.11-.15-.11-.15-.11-.15-.11-.15-.11-.15-.11-.15-.11-.15-.11-.15-.11-.15-.12-.15-.22-.29-.11-.15-.12-.15-.11-.15-.11-.15-.11-.15-.11-.15-.11-.15-.11-.15-.11-.15-.11-.14-.11-.15-.11-.15-.11-.14-.11-.15-.11-.15-.11-.15-.11-.15-.22-.29-.11-.15-.11-.15-.11-.14-.11-.15-.11-.15-.12-.14-.11-.15-.11-.15-.11-.14-.11-.15-.22-.29-.12-.15-.22-.29-.11-.15-.12-.15-.11-.15-.11-.15-.11-.15-.11-.15-.11-.15-.11-.15-.11-.15-.11-.15-.11-.15-.11-.15-.11-.15-.11-.15-.06-.07.06-.07.11-.15.11-.15.11-.15.11-.15.11-.15.11-.15.11-.15.11-.15.11-.15.12-.15.11-.15.11-.15.11-.15.12-.15.22-.29.11-.15.11-.15.11-.15.11-.15.11-.15.11-.15.11-.15.11-.15.11-.15.11-.15.11-.15.11-.15.11-.15.11-.15.11-.15.11-.15.11-.15.11-.15.11-.14.11-.15.11-.15.11-.14.11-.15.11-.15.11-.14.11-.15.11-.15.12-.14.11-.15.22-.29,1.86-2.43Z"/>
  <path d="M46.9,21.82l-4.04,5.28-.11.14-.11.15-.11.15-.11.14-.11.15-.11.15-.11.14-.11.15-.11.15-.11.14-.11.15-.11.15-.11.14-.11.15-.12.15-.11.15-.11.15-.11.15-.11.15-.11.15-.11.15-.11.15-.11.15-.11.15-.11.15-.11.15-.11.15-.11.15h0V12.42l7.18,9.41Z"/>
  <path d="M26.93,34.08l.09.13.11.15.1.15.11.15.1.15.1.15.11.15.1.15.11.15.1.15.11.15.1.15.1.15.11.14.1.15.11.15.1.14.1.15.11.15.1.14.11.15.1.15.1.14.11.15.1.15.11.14.1.15.11.15.1.14.1.15.11.14.1.15.11.15.21.29.11.15.1.14.11.15.1.15.1.14.11.15.1.15.11.14.1.15.11.15.1.15.1.15.06.08.06-.08.1-.15.11-.15.1-.15.11-.15.1-.14.1-.15.11-.15.1-.14.11-.15.1-.15.11-.14.1-.15.1-.15.11-.14.1-.15.11-.15.1-.14.1-.15.11-.14.1-.15.11-.15.21-.29.11-.15.1-.14.11-.15.1-.15.11-.14.1-.15.1-.15.11-.14.1-.15.11-.15.1-.14.1-.15.11-.15.1-.15.11-.15.1-.15.1-.15.11-.15.1-.15.11-.15.1-.15.11-.15.1-.15.1-.13h-9.96Z"/>
  <path d="M37.87,12.4v19.79h-11.91V12.4l5.96,7.66,5.96-7.66Z"/>
  <path d="M0,0l7.18,9.4L0,18.81V0Z"/>
  <path d="M0,24.68v18.8l.06-.08.11-.15.11-.15.11-.14.11-.15.11-.15.11-.14.11-.15.11-.15.11-.14.11-.15.11-.15.11-.14.11-.15.22-.29.11-.15.11-.15.11-.15.11-.15.11-.15.11-.15.11-.15.11-.15.12-.15.11-.15.11-.15.11-.15.12-.15.11-.15.11-.15.11-.15.12-.15.22-.29.11-.15.11-.15.11-.15.11-.15.11-.15.11-.15.11-.15.11-.15.11-.15.11-.15.22-.29.11-.15.22-.29.11-.15.11-.15.11-.15.11-.15.11-.15.12-.15.11-.15.11-.15.11-.15.11-.15.11-.15.11-.15.12-.15.11-.15.06-.07-.06-.07-.11-.15-.11-.15-.11-.15-.11-.14-.11-.15-.11-.15-.11-.15-.11-.15-.11-.15-.11-.15-.11-.15-.11-.15-.11-.14-.11-.15-.22-.29-.11-.15-.11-.15-.11-.14-.11-.15-.11-.15-.11-.14-.11-.15-.11-.15-.11-.15-.11-.15-.11-.15-.11-.15-.12-.15-.11-.15-.11-.15-.11-.15-.12-.15-.11-.15-.11-.15-.11-.15-.11-.15-.11-.15-.11-.15-.12-.15-.11-.15-.11-.15-.11-.15-.11-.15-.11-.15-.22-.29-1.86-2.43Z"/>
  <path d="M.03,21.83l4.04,5.28.11.15.11.15.11.15.12.15.11.15.11.15.11.15.11.15.11.15.11.15.12.15.11.15.11.15.11.15.11.15.11.15.11.15.11.15.11.15.11.15.11.15.11.15.11.15.11.15.11.15.11.14.11.15.11.15h0V12.42L.03,21.83Z"/>
  <path d="M16.85,0l7.18,9.4-7.18,9.4V0Z"/>
  <path d="M16.85,24.68v18.8l.06-.08.11-.15.11-.14.11-.15.11-.15.11-.14.12-.15.11-.15.11-.14.12-.15.11-.15.11-.15.11-.15.12-.15.22-.29.11-.15.11-.15.11-.15.11-.15.11-.15.11-.15.11-.15.11-.15.11-.15.11-.15.11-.15.11-.15.11-.15.11-.15.11-.15.11-.15.11-.15.22-.29.11-.15.11-.15.11-.15.11-.15.11-.15.12-.15.11-.15.11-.15.12-.15.11-.15.22-.29.12-.15.22-.29.11-.14.11-.15.11-.15.11-.14.11-.15.11-.15.11-.14.11-.15.11-.15.11-.14.11-.15.11-.14.11-.15.11-.15.06-.07-.06-.07-.11-.15-.11-.15-.11-.14-.11-.15-.11-.15-.11-.14-.11-.15-.11-.15-.11-.14-.11-.15-.11-.15-.11-.15-.11-.15-.12-.15-.22-.29-.11-.15-.12-.15-.11-.15-.11-.15-.12-.15-.11-.15-.11-.15-.11-.15-.11-.15-.11-.15-.11-.15-.11-.15-.11-.15-.11-.15-.11-.15-.11-.15-.11-.15-.11-.15-.11-.15-.11-.15-.11-.15-.11-.15-.11-.15-.11-.15-.11-.15-.11-.15-.11-.15-.11-.15-.11-.15-.22-.29-1.86-2.43Z"/>
  <path d="M16.88,21.83l4.04,5.28.11.15.11.15.11.15.11.15.11.15.11.15.11.15.11.15.11.15.11.15.11.15.11.15.11.15.11.15.12.15.11.15.11.15.11.15.12.15.11.15.11.15.11.15.12.15.11.15.11.15.12.15.11.15.11.15h0V12.42l-7.18,9.41Z"/>
</svg>