<svg width="92" height="92" viewBox="0 0 92 92" fill="none" xmlns="http://www.w3.org/2000/svg">
<path d="M31.75 49.5625L42.4375 60.25L60.25 35.3125M88.75 46C88.75 52.023 85.7575 57.3525 81.1833 60.573C81.6761 63.3887 81.4831 66.2816 80.6208 69.0069C79.7584 71.7321 78.2519 74.2094 76.229 76.229C74.2094 78.2519 71.7321 79.7584 69.0069 80.6207C66.2816 81.4831 63.3887 81.6761 60.573 81.1832C58.9305 83.5225 56.7485 85.4316 54.2118 86.7487C51.6751 88.0659 48.8583 88.7523 46 88.75C39.977 88.75 34.6475 85.7575 31.427 81.1832C28.6114 81.6757 25.7185 81.4825 22.9933 80.6202C20.2681 79.7578 17.7908 78.2516 15.771 76.229C13.7481 74.2094 12.2417 71.7321 11.3793 69.0069C10.5169 66.2816 10.3239 63.3887 10.8168 60.573C8.47749 58.9305 6.56845 56.7485 5.2513 54.2118C3.93415 51.6751 3.24768 48.8583 3.25001 46C3.25001 39.977 6.24251 34.6475 10.8168 31.427C10.3239 28.6114 10.5169 25.7184 11.3793 22.9931C12.2417 20.2679 13.7481 17.7906 15.771 15.771C17.7908 13.7484 20.2681 12.2422 22.9933 11.3798C25.7185 10.5175 28.6114 10.3243 31.427 10.8168C33.0698 8.47777 35.2518 6.56896 37.7885 5.25184C40.3251 3.93472 43.1418 3.24807 46 3.25C52.023 3.25 57.3525 6.2425 60.573 10.8168C63.3887 10.3243 66.2815 10.5175 69.0067 11.3798C71.7319 12.2422 74.2092 13.7484 76.229 15.771C78.2516 17.7908 79.7578 20.2681 80.6202 22.9933C81.4825 25.7185 81.6757 28.6114 81.1833 31.427C83.5225 33.0695 85.4316 35.2515 86.7487 37.7882C88.0659 40.3249 88.7523 43.1417 88.75 46Z" stroke="#9FDEBE" stroke-width="5.5" stroke-linecap="round" stroke-linejoin="round"/>
</svg>
